<svg width="40" height="40" viewBox="0 0 40 40" fill="none" xmlns="http://www.w3.org/2000/svg">
<path d="M20 3.33337C22.1887 3.33337 24.356 3.76447 26.3781 4.60205C28.4002 5.43963 30.2375 6.66729 31.7851 8.21493C33.3328 9.76257 34.5604 11.5999 35.398 13.622C36.2356 15.6441 36.6667 17.8113 36.6667 20C36.6667 24.4203 34.9107 28.6596 31.7851 31.7852C28.6595 34.9108 24.4203 36.6667 20 36.6667C17.8113 36.6667 15.644 36.2356 13.6219 35.398C11.5998 34.5605 9.76253 33.3328 8.21488 31.7852C5.08928 28.6596 3.33333 24.4203 3.33333 20C3.33333 15.5798 5.08928 11.3405 8.21488 8.21493C11.3405 5.08932 15.5797 3.33337 20 3.33337ZM11.6667 16.6667L20 25L28.3333 16.6667H11.6667Z" fill="#F8CC0B"/>
</svg>
